<svg xmlns="http://www.w3.org/2000/svg" viewBox="0 0 512 512"><radialGradient id="a" cx="254.809" cy="255.373" r="257.78" gradientTransform="matrix(1.0039 0 0 -1.0039 .192 516.562)" gradientUnits="userSpaceOnUse"><stop offset="0" stop-color="#ffe7a5"/><stop offset=".479" stop-color="#ffe6a3"/><stop offset=".652" stop-color="#ffe29c"/><stop offset=".775" stop-color="#ffdc91"/><stop offset=".874" stop-color="#ffd380"/><stop offset=".958" stop-color="#ffc76a"/><stop offset="1" stop-color="#ffbf5c"/></radialGradient><path d="M256 12.562c-136.76 0-247.626 110.866-247.626 247.626S119.24 507.813 256 507.813s247.626-110.866 247.626-247.626S392.761 12.562 256 12.562zm0 335.233c-48.384 0-87.607-39.223-87.607-87.607s39.223-87.607 87.607-87.607 87.607 39.223 87.607 87.607-39.222 87.607-87.607 87.607z" fill="url(#a)"/><radialGradient id="b" cx="254.809" cy="255.373" r="198.995" gradientTransform="matrix(1.0039 0 0 -1.0039 .192 516.562)" gradientUnits="userSpaceOnUse"><stop offset="0" stop-color="#ff5d00"/><stop offset=".218" stop-color="#ff6d0f" stop-opacity=".782"/><stop offset=".643" stop-color="#ff9737" stop-opacity=".357"/><stop offset="1" stop-color="#ffbf5c" stop-opacity="0"/></radialGradient><path d="M256 60.412c-110.333 0-199.775 89.442-199.775 199.775S145.668 459.963 256 459.963s199.775-89.442 199.775-199.775S366.333 60.412 256 60.412zm0 287.383c-48.384 0-87.607-39.223-87.607-87.607s39.223-87.607 87.607-87.607 87.607 39.223 87.607 87.607-39.222 87.607-87.607 87.607z" fill="url(#b)"/><linearGradient id="c" gradientUnits="userSpaceOnUse" x1="254.809" y1="308.514" x2="254.809" y2="78.743" gradientTransform="matrix(1.0039 0 0 -1.0039 .192 516.562)"><stop offset="0" stop-color="#654e48"/><stop offset="1" stop-color="#503837"/></linearGradient><path d="M255.499 4.188C115.942 4.451-.275 121.147 0 260.702a256.556 256.556 0 007.298 60.435c7.751 31.761 36.45 53.952 69.144 53.952a36.67 36.67 0 0014.163-2.823 36.74 36.74 0 0011.843-7.955 36.631 36.631 0 0010.778-26.007 22.364 22.364 0 016.568-15.862 22.366 22.366 0 0115.862-6.568 22.364 22.364 0 0115.862 6.568 22.368 22.368 0 016.568 15.862v63.187c0 27.036 21.916 48.951 48.951 48.951h.012c27.036 0 48.951-21.916 48.951-48.951v-.898c0-13.099 10.61-23.71 23.71-23.71a23.691 23.691 0 0123.71 23.71 26.949 26.949 0 007.931 19.14 26.95 26.95 0 0019.14 7.931h3.278c14.953 0 27.072-12.118 27.072-27.072v-51.523c0-14.367 11.652-26.019 26.019-26.019 7.189 0 13.685 2.906 18.399 7.62 4.701 4.713 7.62 11.221 7.62 18.399v1.794c0 5.383 2.249 10.551 5.85 15.396a43.297 43.297 0 003.745 4.402c21.054 21.665 58.916 14.774 70.879-14.355.06-.132.107-.263.168-.395C505.433 326.34 512 294.029 512 260.187 512 118.634 397.112 3.913 255.499 4.188zM256 347.79c-48.389 0-87.602-39.213-87.602-87.602s39.213-87.602 87.602-87.602 87.602 39.213 87.602 87.602S304.39 347.79 256 347.79z" fill="url(#c)"/><radialGradient id="d" cx="254.809" cy="260.114" r="156.9" gradientTransform="matrix(1.0039 0 0 -1.0039 .192 516.562)" gradientUnits="userSpaceOnUse"><stop offset="0" stop-color="#503837"/><stop offset=".492" stop-color="#4d3634" stop-opacity=".508"/><stop offset=".873" stop-color="#43312c" stop-opacity=".128"/><stop offset="1" stop-color="#3e2e28" stop-opacity="0"/></radialGradient><path d="M256 60.412c-110.333 0-199.775 89.442-199.775 199.775 0 41.541 12.683 80.117 34.382 112.077a36.73 36.73 0 0011.841-7.954 36.631 36.631 0 0010.778-26.007 22.364 22.364 0 016.568-15.862 22.366 22.366 0 0115.862-6.568 22.364 22.364 0 0115.862 6.568 22.368 22.368 0 016.568 15.862v63.187c0 27.036 21.916 48.951 48.951 48.951h.012c27.036 0 48.951-21.916 48.951-48.951v-.898c0-13.099 10.61-23.71 23.71-23.71a23.691 23.691 0 0123.71 23.71 26.949 26.949 0 007.931 19.14 26.95 26.95 0 0019.14 7.931h3.278c14.953 0 27.072-12.118 27.072-27.072v-51.523c0-14.367 11.652-26.019 26.019-26.019 7.189 0 13.685 2.906 18.399 7.62 4.701 4.713 7.62 11.221 7.62 18.399v1.794c0 5.383 2.249 10.551 5.85 15.396a43.39 43.39 0 003.739 4.396c21.04-31.643 33.31-69.62 33.31-110.469C455.776 149.855 366.333 60.412 256 60.412zm0 287.383c-48.384 0-87.607-39.223-87.607-87.607s39.223-87.607 87.607-87.607 87.607 39.223 87.607 87.607-39.222 87.607-87.607 87.607z" fill="url(#d)"/><linearGradient id="e" gradientUnits="userSpaceOnUse" x1="44.732" y1="275.901" x2="20.898" y2="289.011" gradientTransform="matrix(1.0039 0 0 -1.0039 .192 516.562)"><stop offset="0" stop-color="#3e2e28" stop-opacity="0"/><stop offset="1" stop-color="#503837"/></linearGradient><path d="M35.26 208.606a4.75 4.75 0 00-1.54-1.216 4.786 4.786 0 00-6.411 2.166L14.575 235.29c-.948 1.915-.477 4.144.985 5.553l17.886 17.886a4.77 4.77 0 001.539 1.216 4.786 4.786 0 006.411-2.166l12.734-25.733c.948-1.915.477-4.145-.985-5.553L35.26 208.606z" fill="url(#e)"/><linearGradient id="f" gradientUnits="userSpaceOnUse" x1="124.2" y1="230.624" x2="106.59" y2="248.234" gradientTransform="matrix(1.0039 0 0 -1.0039 .192 516.562)"><stop offset="0" stop-color="#3e2e28" stop-opacity="0"/><stop offset="1" stop-color="#503837"/></linearGradient><path d="M100.885 248.172c-1.434-1.462-3.692-1.905-5.605-.914a4.785 4.785 0 00-2.044 6.451l13.221 25.486c.307.591.721 1.09 1.204 1.489l17.885 17.885c1.434 1.462 3.692 1.905 5.605.914a4.785 4.785 0 002.044-6.451l-13.22-25.486a4.764 4.764 0 00-1.204-1.489l-17.886-17.885z" fill="url(#f)"/><linearGradient id="g" gradientUnits="userSpaceOnUse" x1="96.517" y1="304.221" x2="74.387" y2="326.351" gradientTransform="matrix(1.0039 0 0 -1.0039 .192 516.562)"><stop offset="0" stop-color="#3e2e28" stop-opacity="0"/><stop offset="1" stop-color="#503837"/></linearGradient><path d="M88.394 178.491a4.746 4.746 0 00-2.517-1.527 4.785 4.785 0 00-5.743 3.579l-6.494 27.966c-.402 1.731.206 3.444 1.42 4.574l17.885 17.885a4.746 4.746 0 002.517 1.527 4.785 4.785 0 005.743-3.579l6.494-27.966c.402-1.731-.206-3.444-1.42-4.574l-17.885-17.885z" fill="url(#g)"/><linearGradient id="h" gradientUnits="userSpaceOnUse" x1="68.242" y1="222.574" x2="61.092" y2="241.834" gradientTransform="matrix(1.0039 0 0 -1.0039 .192 516.562)"><stop offset="0" stop-color="#3e2e28" stop-opacity="0"/><stop offset="1" stop-color="#503837"/></linearGradient><path d="M69.563 273.336a4.734 4.734 0 00-.95-.826l-24.186-15.468a4.785 4.785 0 00-6.609 1.453c-1.285 2.01-.867 4.605.861 6.141l17.885 17.885c.278.306.584.592.95.826L81.7 298.815a4.785 4.785 0 006.609-1.453c1.285-2.01.867-4.605-.861-6.141l-17.885-17.885z" fill="url(#h)"/><linearGradient id="i" gradientUnits="userSpaceOnUse" x1="149.703" y1="283.995" x2="142.353" y2="301.075" gradientTransform="matrix(1.0039 0 0 -1.0039 .192 516.562)"><stop offset="0" stop-color="#3e2e28" stop-opacity="0"/><stop offset="1" stop-color="#503837"/></linearGradient><path d="M154.074 204.288c-1.391-1.461-3.601-1.95-5.519-1.03l-25.888 12.412a4.786 4.786 0 00-2.246 6.384c.3.626.725 1.151 1.223 1.574l17.885 17.885c1.391 1.461 3.601 1.95 5.519 1.03l25.888-12.412a4.786 4.786 0 002.246-6.384 4.742 4.742 0 00-1.223-1.573l-17.885-17.886z" fill="url(#i)"/><path d="M16.743 241.7a4.786 4.786 0 01-2.166-6.411l12.734-25.733a4.786 4.786 0 018.577 4.245l-12.734 25.733a4.787 4.787 0 01-6.411 2.166z" fill="#7eccfd"/><path d="M112.907 281.239a4.786 4.786 0 01-6.451-2.044L93.235 253.71a4.786 4.786 0 018.495-4.407l13.221 25.486a4.784 4.784 0 01-2.044 6.45z" fill="#e2edf2"/><path d="M77.218 214.252a4.785 4.785 0 01-3.579-5.743l6.494-27.966a4.785 4.785 0 019.322 2.164l-6.494 27.966a4.785 4.785 0 01-5.743 3.579z" fill="#ff7bac"/><path d="M37.817 258.494a4.785 4.785 0 016.609-1.453l24.186 15.468a4.785 4.785 0 01-5.156 8.062L39.27 265.103a4.786 4.786 0 01-1.453-6.609z" fill="#ffe7a5"/><path d="M154.939 205.504a4.786 4.786 0 01-2.246 6.384L126.805 224.3a4.786 4.786 0 01-4.138-8.63l25.888-12.412a4.786 4.786 0 016.384 2.246z" fill="#9eb644"/><linearGradient id="j" gradientUnits="userSpaceOnUse" x1="137.679" y1="399.824" x2="113.849" y2="412.933" gradientTransform="matrix(1.0039 0 0 -1.0039 .192 516.562)"><stop offset="0" stop-color="#3e2e28" stop-opacity="0"/><stop offset="1" stop-color="#503837"/></linearGradient><path d="M128.569 84.195a4.75 4.75 0 00-1.54-1.216 4.786 4.786 0 00-6.411 2.166l-12.734 25.733c-.948 1.915-.477 4.144.985 5.553l17.886 17.886a4.77 4.77 0 001.539 1.216 4.786 4.786 0 006.411-2.166l12.734-25.732c.948-1.915.477-4.145-.985-5.553l-17.885-17.887z" fill="url(#j)"/><linearGradient id="k" gradientUnits="userSpaceOnUse" x1="217.149" y1="354.543" x2="199.539" y2="372.153" gradientTransform="matrix(1.0039 0 0 -1.0039 .192 516.562)"><stop offset="0" stop-color="#3e2e28" stop-opacity="0"/><stop offset="1" stop-color="#503837"/></linearGradient><path d="M194.193 123.761c-1.434-1.462-3.692-1.905-5.605-.914a4.785 4.785 0 00-2.044 6.451l13.221 25.486c.307.591.721 1.09 1.204 1.489l17.885 17.885c1.434 1.462 3.692 1.905 5.605.914a4.785 4.785 0 002.044-6.451l-13.221-25.486a4.764 4.764 0 00-1.204-1.489l-17.885-17.885z" fill="url(#k)"/><linearGradient id="l" gradientUnits="userSpaceOnUse" x1="189.461" y1="428.145" x2="167.331" y2="450.276" gradientTransform="matrix(1.0039 0 0 -1.0039 .192 516.562)"><stop offset="0" stop-color="#3e2e28" stop-opacity="0"/><stop offset="1" stop-color="#503837"/></linearGradient><path d="M181.702 54.08a4.746 4.746 0 00-2.517-1.527 4.785 4.785 0 00-5.743 3.579l-6.494 27.966c-.402 1.731.206 3.444 1.42 4.574l17.885 17.885a4.75 4.75 0 002.517 1.527 4.785 4.785 0 005.743-3.579l6.494-27.966c.402-1.731-.206-3.444-1.42-4.574L181.702 54.08z" fill="url(#l)"/><linearGradient id="m" gradientUnits="userSpaceOnUse" x1="161.177" y1="346.503" x2="154.037" y2="365.763" gradientTransform="matrix(1.0039 0 0 -1.0039 .192 516.562)"><stop offset="0" stop-color="#3e2e28" stop-opacity="0"/><stop offset="1" stop-color="#503837"/></linearGradient><path d="M162.872 148.925a4.734 4.734 0 00-.95-.826l-24.186-15.468a4.785 4.785 0 00-6.609 1.453c-1.285 2.01-.867 4.605.861 6.141l17.885 17.885c.278.306.584.592.95.826l24.186 15.468a4.785 4.785 0 006.609-1.453c1.285-2.01.867-4.605-.861-6.141l-17.885-17.885z" fill="url(#m)"/><linearGradient id="n" gradientUnits="userSpaceOnUse" x1="242.646" y1="407.922" x2="235.296" y2="425.002" gradientTransform="matrix(1.0039 0 0 -1.0039 .192 516.562)"><stop offset="0" stop-color="#3e2e28" stop-opacity="0"/><stop offset="1" stop-color="#503837"/></linearGradient><path d="M247.383 79.877c-1.391-1.461-3.601-1.95-5.519-1.03L215.976 91.26a4.786 4.786 0 00-2.246 6.384c.3.626.725 1.151 1.223 1.574l17.885 17.885c1.391 1.461 3.601 1.95 5.519 1.03l25.888-12.412a4.786 4.786 0 002.246-6.384 4.752 4.752 0 00-1.223-1.573l-17.885-17.887z" fill="url(#n)"/><path d="M110.051 117.289a4.786 4.786 0 01-2.166-6.411l12.734-25.733a4.786 4.786 0 018.577 4.245l-12.734 25.733a4.786 4.786 0 01-6.411 2.166z" fill="#7eccfd"/><path d="M206.215 156.828a4.786 4.786 0 01-6.451-2.044l-13.221-25.486a4.786 4.786 0 018.495-4.407l13.221 25.486a4.784 4.784 0 01-2.044 6.451z" fill="#e2edf2"/><path d="M170.527 89.841a4.785 4.785 0 01-3.579-5.743l6.494-27.966a4.785 4.785 0 019.322 2.164l-6.494 27.966a4.785 4.785 0 01-5.743 3.579z" fill="#ff7bac"/><path d="M131.126 134.083a4.785 4.785 0 016.609-1.453l24.186 15.468a4.785 4.785 0 01-5.156 8.062l-24.186-15.468a4.785 4.785 0 01-1.453-6.609z" fill="#ffe7a5"/><path d="M248.247 81.093a4.786 4.786 0 01-2.246 6.384L220.113 99.89a4.786 4.786 0 01-4.138-8.63l25.888-12.412a4.783 4.783 0 016.384 2.245z" fill="#9eb644"/><linearGradient id="o" gradientUnits="userSpaceOnUse" x1="300.929" y1="398.633" x2="277.089" y2="411.743" gradientTransform="matrix(1.0039 0 0 -1.0039 .192 516.562)"><stop offset="0" stop-color="#3e2e28" stop-opacity="0"/><stop offset="1" stop-color="#503837"/></linearGradient><path d="M292.456 85.392a4.75 4.75 0 00-1.54-1.216 4.786 4.786 0 00-6.411 2.166l-12.734 25.733c-.948 1.915-.477 4.144.985 5.553l17.886 17.886c.413.492.927.913 1.54 1.216a4.786 4.786 0 006.411-2.166l12.734-25.732c.948-1.915.477-4.145-.985-5.553l-17.886-17.887z" fill="url(#o)"/><linearGradient id="p" gradientUnits="userSpaceOnUse" x1="380.396" y1="353.351" x2="362.786" y2="370.961" gradientTransform="matrix(1.0039 0 0 -1.0039 .192 516.562)"><stop offset="0" stop-color="#3e2e28" stop-opacity="0"/><stop offset="1" stop-color="#503837"/></linearGradient><path d="M358.08 124.958c-1.434-1.462-3.692-1.905-5.605-.914a4.785 4.785 0 00-2.044 6.451l13.221 25.486c.307.591.721 1.09 1.204 1.489l17.885 17.885c1.434 1.462 3.692 1.905 5.605.914a4.785 4.785 0 002.044-6.451l-13.221-25.486a4.764 4.764 0 00-1.204-1.489l-17.885-17.885z" fill="url(#p)"/><linearGradient id="q" gradientUnits="userSpaceOnUse" x1="352.709" y1="426.954" x2="330.579" y2="449.083" gradientTransform="matrix(1.0039 0 0 -1.0039 .192 516.562)"><stop offset="0" stop-color="#3e2e28" stop-opacity="0"/><stop offset="1" stop-color="#503837"/></linearGradient><path d="M345.59 55.276a4.746 4.746 0 00-2.517-1.527 4.785 4.785 0 00-5.743 3.579l-6.494 27.966c-.402 1.731.206 3.444 1.42 4.574l17.885 17.885a4.746 4.746 0 002.517 1.527 4.785 4.785 0 005.743-3.579l6.494-27.966c.402-1.731-.206-3.444-1.42-4.574L345.59 55.276z" fill="url(#q)"/><linearGradient id="r" gradientUnits="userSpaceOnUse" x1="324.431" y1="345.304" x2="317.281" y2="364.574" gradientTransform="matrix(1.0039 0 0 -1.0039 .192 516.562)"><stop offset="0" stop-color="#3e2e28" stop-opacity="0"/><stop offset="1" stop-color="#503837"/></linearGradient><path d="M326.759 150.122a4.734 4.734 0 00-.95-.826l-24.186-15.468a4.785 4.785 0 00-6.609 1.453c-1.285 2.01-.867 4.605.861 6.141l17.885 17.885c.278.306.584.592.95.826l24.186 15.468a4.785 4.785 0 006.609-1.453c1.285-2.01.867-4.605-.861-6.141l-17.885-17.885z" fill="url(#r)"/><linearGradient id="s" gradientUnits="userSpaceOnUse" x1="405.887" y1="406.733" x2="398.547" y2="423.813" gradientTransform="matrix(1.0039 0 0 -1.0039 .192 516.562)"><stop offset="0" stop-color="#3e2e28" stop-opacity="0"/><stop offset="1" stop-color="#503837"/></linearGradient><path d="M411.27 81.073c-1.391-1.461-3.601-1.95-5.519-1.03l-25.888 12.412a4.786 4.786 0 00-2.246 6.384c.3.626.725 1.152 1.223 1.574l17.885 17.885c1.391 1.461 3.601 1.95 5.519 1.03l25.888-12.412a4.786 4.786 0 002.246-6.384 4.742 4.742 0 00-1.223-1.573L411.27 81.073z" fill="url(#s)"/><path d="M273.939 118.485a4.786 4.786 0 01-2.166-6.411l12.734-25.733a4.786 4.786 0 018.577 4.245l-12.734 25.733a4.786 4.786 0 01-6.411 2.166z" fill="#7eccfd"/><path d="M370.103 158.025a4.786 4.786 0 01-6.451-2.044l-13.221-25.486a4.786 4.786 0 018.495-4.407l13.221 25.486a4.786 4.786 0 01-2.044 6.451z" fill="#e2edf2"/><path d="M334.414 91.037a4.785 4.785 0 01-3.579-5.743l6.494-27.966a4.785 4.785 0 019.322 2.164l-6.494 27.966a4.785 4.785 0 01-5.743 3.579z" fill="#ff7bac"/><path d="M295.013 135.28a4.785 4.785 0 016.609-1.453l24.186 15.468a4.785 4.785 0 01-5.156 8.062l-24.186-15.468a4.785 4.785 0 01-1.453-6.609z" fill="#ffe7a5"/><path d="M412.135 82.289a4.786 4.786 0 01-2.246 6.384L384 101.085a4.786 4.786 0 01-4.138-8.63l25.888-12.412a4.787 4.787 0 016.385 2.246z" fill="#9eb644"/><linearGradient id="t" gradientUnits="userSpaceOnUse" x1="377.188" y1="281.861" x2="353.358" y2="294.961" gradientTransform="matrix(1.0039 0 0 -1.0039 .192 516.562)"><stop offset="0" stop-color="#3e2e28" stop-opacity="0"/><stop offset="1" stop-color="#503837"/></linearGradient><path d="M369.017 202.625a4.75 4.75 0 00-1.54-1.216 4.786 4.786 0 00-6.411 2.166l-12.734 25.733c-.948 1.915-.477 4.144.985 5.553l17.886 17.886a4.77 4.77 0 001.539 1.216 4.786 4.786 0 006.411-2.166l12.734-25.733c.948-1.915.477-4.145-.985-5.553l-17.885-17.886z" fill="url(#t)"/><linearGradient id="u" gradientUnits="userSpaceOnUse" x1="456.66" y1="236.574" x2="439.05" y2="254.184" gradientTransform="matrix(1.0039 0 0 -1.0039 .192 516.562)"><stop offset="0" stop-color="#3e2e28" stop-opacity="0"/><stop offset="1" stop-color="#503837"/></linearGradient><path d="M434.641 242.191c-1.434-1.462-3.692-1.905-5.605-.914a4.785 4.785 0 00-2.044 6.451l13.221 25.486c.307.591.721 1.09 1.204 1.489l17.885 17.885c1.434 1.462 3.692 1.905 5.605.914a4.785 4.785 0 002.044-6.451l-13.221-25.486a4.764 4.764 0 00-1.204-1.489l-17.885-17.885z" fill="url(#u)"/><linearGradient id="v" gradientUnits="userSpaceOnUse" x1="428.971" y1="310.175" x2="406.841" y2="332.315" gradientTransform="matrix(1.0039 0 0 -1.0039 .192 516.562)"><stop offset="0" stop-color="#3e2e28" stop-opacity="0"/><stop offset="1" stop-color="#503837"/></linearGradient><path d="M422.151 172.509a4.746 4.746 0 00-2.517-1.527 4.785 4.785 0 00-5.743 3.579l-6.494 27.966c-.402 1.731.206 3.444 1.42 4.574l17.885 17.885a4.746 4.746 0 002.517 1.527 4.785 4.785 0 005.743-3.579l6.494-27.966c.402-1.731-.206-3.444-1.42-4.574l-17.885-17.885z" fill="url(#v)"/><linearGradient id="w" gradientUnits="userSpaceOnUse" x1="400.694" y1="228.535" x2="393.544" y2="247.795" gradientTransform="matrix(1.0039 0 0 -1.0039 .192 516.562)"><stop offset="0" stop-color="#3e2e28" stop-opacity="0"/><stop offset="1" stop-color="#503837"/></linearGradient><path d="M403.32 267.355a4.734 4.734 0 00-.95-.826l-24.186-15.468a4.785 4.785 0 00-6.609 1.453c-1.285 2.01-.867 4.605.861 6.141l17.885 17.885c.278.306.584.592.95.826l24.186 15.468a4.785 4.785 0 006.609-1.453c1.285-2.01.867-4.605-.861-6.141l-17.885-17.885z" fill="url(#w)"/><linearGradient id="x" gradientUnits="userSpaceOnUse" x1="482.15" y1="289.954" x2="474.81" y2="307.034" gradientTransform="matrix(1.0039 0 0 -1.0039 .192 516.562)"><stop offset="0" stop-color="#3e2e28" stop-opacity="0"/><stop offset="1" stop-color="#503837"/></linearGradient><path d="M487.831 198.307c-1.391-1.461-3.601-1.95-5.519-1.03l-25.888 12.412a4.786 4.786 0 00-2.246 6.384c.3.626.725 1.152 1.223 1.574l17.885 17.885c1.391 1.461 3.601 1.95 5.519 1.03l25.888-12.412a4.786 4.786 0 002.246-6.384 4.742 4.742 0 00-1.223-1.573l-17.885-17.886z" fill="url(#x)"/><path d="M350.5 235.718a4.786 4.786 0 01-2.166-6.411l12.734-25.733a4.786 4.786 0 018.577 4.245l-12.734 25.733a4.784 4.784 0 01-6.411 2.166z" fill="#7eccfd"/><path d="M446.663 275.258a4.786 4.786 0 01-6.451-2.044l-13.221-25.486a4.786 4.786 0 018.495-4.407l13.221 25.486a4.784 4.784 0 01-2.044 6.451z" fill="#e2edf2"/><path d="M410.975 208.271a4.785 4.785 0 01-3.579-5.743l6.494-27.966a4.785 4.785 0 019.322 2.164l-6.494 27.966a4.786 4.786 0 01-5.743 3.579z" fill="#ff7bac"/><path d="M371.574 252.513a4.785 4.785 0 016.609-1.453l24.186 15.468a4.785 4.785 0 01-5.156 8.062l-24.186-15.468a4.785 4.785 0 01-1.453-6.609z" fill="#ffe7a5"/><path d="M488.695 199.523a4.786 4.786 0 01-2.246 6.384l-25.888 12.412a4.786 4.786 0 01-4.138-8.63l25.888-12.412a4.786 4.786 0 016.384 2.246z" fill="#9eb644"/></svg>